<svg id="Capa_1" enable-background="new 0 0 512 512" height="512" viewBox="0 0 512 512" width="512" xmlns="http://www.w3.org/2000/svg"><g><g><path clip-rule="evenodd" d="m502 32.053c0-12.132-9.957-22.053-22.099-22.053h-447.83c-12.142 0-22.071 9.921-22.071 22.053v83.167h491.972z" fill="#ff7d95" fill-rule="evenodd"/></g><g><path clip-rule="evenodd" d="m399.702 362.056v-199.952h-287.432v199.952l96.51-139.915 64.454 93.428 47.206-68.427z" fill="#cbf4fb" fill-rule="evenodd"/></g><g><path clip-rule="evenodd" d="m273.234 315.569-64.454-93.428-96.51 139.915h193.021z" fill="#a0e5a5" fill-rule="evenodd"/></g><g><path clip-rule="evenodd" d="m399.702 362.056-79.262-114.914-47.206 68.427 32.057 46.487z" fill="#d0f2d2" fill-rule="evenodd"/></g><g><path clip-rule="evenodd" d="m502 479.919-.028-364.699h-491.972v364.699c0 12.132 9.929 22.081 22.071 22.081h447.83c12.142 0 22.099-9.949 22.099-22.081zm-102.298-317.815v199.952h-94.411-193.021v-199.952zm-222.042 246.865c12.766 0 23.092 10.318 23.092 23.045 0 12.756-10.326 23.074-23.092 23.074-12.738 0-23.064-10.318-23.064-23.074 0-12.727 10.326-23.045 23.064-23.045z" fill="#fff" fill-rule="evenodd"/></g><g><path clip-rule="evenodd" d="m200.752 432.014c0-12.727-10.326-23.045-23.092-23.045-12.738 0-23.064 10.318-23.064 23.045 0 12.756 10.326 23.074 23.064 23.074 12.766-.001 23.092-10.318 23.092-23.074z" fill="#98eaf9" fill-rule="evenodd"/></g><g><path d="m444.63 301.447c-2.062 0-4.14-.635-5.927-1.952-4.445-3.277-5.392-9.538-2.114-13.983l11.741-15.924-11.745-15.949c-3.275-4.447-2.325-10.707 2.123-13.982 4.447-3.274 10.707-2.324 13.982 2.123l16.114 21.883c2.598 3.528 2.597 8.338-.003 11.864l-16.114 21.854c-1.96 2.659-4.989 4.066-8.057 4.066z"/></g><g><path d="m387.73 72.61c5.523 0 10-4.478 10-10s-4.477-10-10-10h-.057c-5.523 0-9.972 4.478-9.972 10s4.507 10 10.029 10z"/><path d="m441.716 72.61c5.523 0 10-4.478 10-10s-4.477-10-10-10h-.057c-5.523 0-9.972 4.478-9.972 10s4.506 10 10.029 10z"/><path d="m333.773 72.61c5.523 0 10-4.478 10-10s-4.477-10-10-10h-.057c-5.523 0-9.972 4.478-9.972 10s4.506 10 10.029 10z"/><path d="m70.284 72.61h150.241c5.523 0 10-4.478 10-10s-4.477-10-10-10h-150.241c-5.523 0-10 4.478-10 10s4.477 10 10 10z"/><path d="m479.901 0h-447.83c-17.684 0-32.071 14.379-32.071 32.053v447.866c0 17.689 14.387 32.081 32.071 32.081h447.83c17.7 0 32.099-14.392 32.099-32.081v-447.866c0-17.674-14.399-32.053-32.099-32.053zm-447.83 20h447.83c6.671 0 12.099 5.407 12.099 12.053v73.167h-472v-73.167c0-6.646 5.415-12.053 12.071-12.053zm447.83 472h-447.83c-6.656 0-12.071-5.42-12.071-12.081v-354.699h472v354.699c0 6.661-5.428 12.081-12.099 12.081z"/><path d="m346.709 422.014h-29.078c-5.523 0-10 4.478-10 10s4.477 10 10 10h29.078c5.523 0 10-4.478 10-10s-4.477-10-10-10z"/><path d="m273.745 422.014h-29.078c-5.523 0-10 4.478-10 10s4.477 10 10 10h29.078c5.523 0 10-4.478 10-10s-4.477-10-10-10z"/><path d="m110.681 422.014h-29.078c-5.523 0-10 4.478-10 10s4.477 10 10 10h29.078c5.523 0 10-4.478 10-10s-4.477-10-10-10z"/><path d="m177.66 398.969c-18.231 0-33.064 14.824-33.064 33.045 0 18.237 14.833 33.074 33.064 33.074 18.247 0 33.092-14.837 33.092-33.074 0-18.221-14.845-33.045-33.092-33.045zm0 46.119c-7.204 0-13.064-5.865-13.064-13.074 0-7.193 5.86-13.045 13.064-13.045 7.219 0 13.092 5.852 13.092 13.045 0 7.209-5.873 13.074-13.092 13.074z"/><path d="m419.702 422.014h-29.078c-5.523 0-10 4.478-10 10s4.477 10 10 10h29.078c5.523 0 10-4.478 10-10s-4.477-10-10-10z"/><path d="m305.414 372.057h94.28c5.495 0 10.051-4.625 10.008-10.115v-199.838c0-5.522-4.477-10-10-10h-98.78c-5.523 0-10 4.478-10 10s4.477 10 10 10h88.78v157.842l-61.03-88.482c-1.867-2.706-4.944-4.322-8.231-4.322-3.287 0-6.365 1.615-8.231 4.321l-38.979 56.502-56.218-81.502c-1.867-2.706-4.944-4.322-8.232-4.322s-6.365 1.616-8.231 4.322l-78.28 113.485v-157.844h88.78c5.523 0 10-4.478 10-10s-4.477-10-10-10h-98.78c-5.523 0-10 4.478-10 10v199.839c-.053 5.49 4.521 10.113 10.008 10.113h193.092c.014.001.029.001.044.001zm15.025-107.304 60.217 87.304h-70.116l-25.163-36.48zm-111.659-25 77.465 112.304h-154.93z"/><path d="m255.986 172.104h.057c5.523 0 9.972-4.478 9.972-10s-4.505-10-10.028-10-10 4.478-10 10 4.476 10 9.999 10z"/><path d="m452.69 241.779c-3.275-4.447-9.535-5.397-13.982-2.123-4.447 3.275-5.397 9.535-2.123 13.982l11.745 15.949-11.741 15.924c-3.277 4.445-2.331 10.706 2.114 13.983 1.787 1.317 3.865 1.952 5.927 1.952 3.068 0 6.096-1.407 8.057-4.066l16.114-21.854c2.6-3.526 2.602-8.336.003-11.864z"/><path d="m75.411 285.512-11.741-15.924 11.745-15.949c3.275-4.447 2.325-10.707-2.123-13.982-4.448-3.274-10.708-2.324-13.982 2.123l-16.114 21.883c-2.598 3.528-2.597 8.338.003 11.864l16.114 21.854c1.961 2.659 4.988 4.066 8.057 4.066 2.061 0 4.141-.636 5.927-1.952 4.445-3.277 5.391-9.538 2.114-13.983z"/></g></g></svg>